<?xml version="1.0" encoding="UTF-8" standalone="no"?>
<!-- Created with Inkscape (http://www.inkscape.org/) -->

<svg
   xmlns:osb="http://www.openswatchbook.org/uri/2009/osb"
   xmlns:dc="http://purl.org/dc/elements/1.1/"
   xmlns:cc="http://creativecommons.org/ns#"
   xmlns:rdf="http://www.w3.org/1999/02/22-rdf-syntax-ns#"
   xmlns:svg="http://www.w3.org/2000/svg"
   xmlns="http://www.w3.org/2000/svg"
   xmlns:sodipodi="http://sodipodi.sourceforge.net/DTD/sodipodi-0.dtd"
   xmlns:inkscape="http://www.inkscape.org/namespaces/inkscape"
   width="40"
   height="59.999996"
   viewBox="0 0 10.583333 15.874999"
   version="1.1"
   id="svg8"
   inkscape:version="0.92.3 (2405546, 2018-03-11)"
   sodipodi:docname="suchthegeek-logo.svg">
  <defs
     id="defs2">
    <linearGradient
       id="linearGradient847"
       osb:paint="solid">
      <stop
         style="stop-color:#000000;stop-opacity:1;"
         offset="0"
         id="stop845" />
    </linearGradient>
  </defs>
  <sodipodi:namedview
     id="base"
     pagecolor="#ffffff"
     bordercolor="#666666"
     borderopacity="1.0"
     inkscape:pageopacity="0.0"
     inkscape:pageshadow="2"
     inkscape:zoom="11.633334"
     inkscape:cx="20"
     inkscape:cy="29.999998"
     inkscape:document-units="mm"
     inkscape:current-layer="g960"
     showgrid="false"
     inkscape:window-width="1600"
     inkscape:window-height="882"
     inkscape:window-x="0"
     inkscape:window-y="0"
     inkscape:window-maximized="1"
     inkscape:snap-intersection-paths="true"
     inkscape:object-paths="true"
     inkscape:object-nodes="true"
     inkscape:snap-nodes="false"
     inkscape:snap-global="true"
     units="px"
     inkscape:snap-midpoints="true"
     inkscape:snap-smooth-nodes="true"
     fit-margin-top="0"
     fit-margin-left="0"
     fit-margin-right="0"
     fit-margin-bottom="0" />
  <metadata
     id="metadata5">
    <rdf:RDF>
      <cc:Work
         rdf:about="">
        <dc:format>image/svg+xml</dc:format>
        <dc:type
           rdf:resource="http://purl.org/dc/dcmitype/StillImage" />
        <dc:title></dc:title>
      </cc:Work>
    </rdf:RDF>
  </metadata>
  <g
     inkscape:label="Layer 1"
     inkscape:groupmode="layer"
     id="layer1"
     transform="translate(-28.521251,-244.27636)">
    <g
       id="g960"
       transform="matrix(0.99923302,0,0,0.9996799,2.5964337e-4,0.09412367)">
      <g
         id="g1014"
         transform="matrix(0.10810811,0,0,0.11009174,28.542911,227.44316)">
        <path
           style="fill:#ffffff;fill-opacity:1;fill-rule:evenodd;stroke:none;stroke-width:471.4168396;stroke-linecap:round;stroke-linejoin:round;stroke-miterlimit:4;stroke-dasharray:none;stroke-opacity:1"
           d="m 97.970715,162.89953 c -6.360437,9.88651 -15.458548,24.30226 -8.704164,56.34835 3.375757,23.52427 4.183527,48.94898 -14.595428,68.72467 -6.55894,5.69305 -13.971098,9.52671 -22.40802,8.97583 -7.814641,-0.51024 -18.101753,-4.30075 -23.79278,-10.57093 -8.895724,-11.18459 -9.260633,-16.99741 -12.142426,-28.77723 l -0.587086,-8.83606 c -6.352375,-12.76144 0.352642,-32.15008 1.982187,-34.49621 0.796494,-3.59511 1.966222,-10.3292 1.656295,-13.15446 C 15.590756,188.23515 0.79097802,197.83549 -2.5967263e-4,173.25974 33.826074,139.68423 73.435325,155.81231 97.970715,162.89953 Z"
           id="path854"
           inkscape:connector-curvature="0"
           sodipodi:nodetypes="cccsccccccc" />
        <g
           transform="translate(1.9874077e-7,0.17336357)"
           id="g1023">
          <path
             sodipodi:nodetypes="ccccsssssscssccsssscscc"
             inkscape:connector-curvature="0"
             id="path844"
             d="m 67.666726,255.95228 c -2.756607,-0.27388 -6.007693,-1.74918 -9.243613,-4.19461 -1.339135,-1.01202 -2.156627,-1.71877 -3.907096,-3.37782 -0.838595,-0.79482 -1.610488,-1.46891 -1.71531,-1.498 -0.58491,-0.16233 -2.865167,-0.55569 -4.145045,-0.71505 -5.700228,-0.70976 -10.161115,0.0503 -13.167676,2.24386 -1.096706,0.8001 -2.17281,2.07241 -2.68501,3.17455 -0.162944,0.35063 -0.260861,0.41834 -1.286483,0.88971 -4.457645,2.04869 -8.116137,1.59252 -11.073979,-1.3808 -2.705289,-2.71943 -4.432997,-7.07986 -5.203474,-13.13266 -0.240215,-1.88711 -0.240823,-7.01283 -10e-4,-8.99577 1.398842,-11.56934 6.431862,-19.71384 13.625172,-22.04845 2.644767,-0.85835 5.797129,-0.91097 8.854314,-0.14778 3.980654,0.99374 8.276701,3.38079 12.887517,7.16084 0.554605,0.45466 1.117018,0.86202 1.249809,0.90522 0.472984,0.15385 0.832408,-0.0116 1.903499,-0.87632 4.395432,-3.5485 8.353341,-5.70718 12.068248,-6.58218 4.115976,-0.96945 7.684948,-0.0902 10.574016,2.60534 4.42499,4.12841 6.941109,12.23413 6.723228,21.65899 -0.181123,7.83497 -2.172369,14.77157 -5.574253,19.41819 -0.794336,1.08499 -2.309546,2.56961 -3.277411,3.21125 -2.006641,1.33033 -4.289814,1.91153 -6.605386,1.68149 z"
             style="fill:#00ffff;fill-opacity:1;fill-rule:evenodd;stroke-width:2.03631949;stroke-linecap:round;stroke-linejoin:round;stroke-miterlimit:4;stroke-dasharray:none" />
          <path
             sodipodi:nodetypes="czc"
             inkscape:connector-curvature="0"
             id="path843"
             d="m 94.255702,163.97903 c -23.57601,32.95201 3.991643,64.2558 -10.549268,104.22392 -14.540911,39.96812 -63.549201,31.53946 -64.975794,-20.54381"
             style="fill:none;stroke:#000000;stroke-width:2.11666656;stroke-linecap:round;stroke-linejoin:round;stroke-miterlimit:4;stroke-dasharray:none;stroke-opacity:1" />
          <path
             sodipodi:nodetypes="cc"
             inkscape:connector-curvature="0"
             id="path841"
             d="m 79.484508,160.35519 c -19.796107,5.16566 2.88335,20.62866 -12.744546,39.13441"
             style="fill:none;stroke:#000000;stroke-width:2.11666656;stroke-linecap:round;stroke-linejoin:round;stroke-miterlimit:4;stroke-dasharray:none;stroke-opacity:1" />
          <path
             sodipodi:nodetypes="cc"
             inkscape:connector-curvature="0"
             id="path839"
             d="m 60.720997,156.12171 c -17.508791,8.36913 5.156434,34.95532 -4.632281,45.05886"
             style="fill:none;stroke:#000000;stroke-width:2.11666656;stroke-linecap:round;stroke-linejoin:round;stroke-miterlimit:4;stroke-dasharray:none;stroke-opacity:1" />
          <path
             sodipodi:nodetypes="cc"
             inkscape:connector-curvature="0"
             id="path837"
             d="m 35.983043,156.33095 c -8.954631,20.58111 13.466876,25.73761 10.785824,46.11786"
             style="fill:none;stroke:#000000;stroke-width:2.11666656;stroke-linecap:round;stroke-linejoin:round;stroke-miterlimit:4;stroke-dasharray:none;stroke-opacity:1" />
          <path
             sodipodi:nodetypes="cc"
             inkscape:connector-curvature="0"
             id="path835"
             d="m 13.14664,166.16346 c 3.610689,21.52743 20.640957,20.552 19.86435,32.05789"
             style="fill:none;stroke:#000000;stroke-width:2.11666656;stroke-linecap:round;stroke-linejoin:round;stroke-miterlimit:4;stroke-dasharray:none;stroke-opacity:1" />
          <path
             inkscape:connector-curvature="0"
             id="path831"
             d="m 41.443233,279.38807 c 8.952132,6.72318 20.734936,2.55499 20.414909,-10.14587"
             style="fill:none;stroke:#000000;stroke-width:2.11666656;stroke-linecap:round;stroke-linejoin:round;stroke-miterlimit:4;stroke-dasharray:none;stroke-opacity:1" />
          <path
             sodipodi:nodetypes="ccccsc"
             inkscape:connector-curvature="0"
             id="path827"
             d="M 51.207081,262.47868 C 35.776457,275.57987 21.062342,240.14694 52.270595,246.97885 89.96233,285.84194 94.634454,179.1157 52.09468,214.70827 l -0.07497,0.0656 c -7.08238,-6.04369 -12.889863,-8.16517 -17.615745,-8.18611 -25.5197607,-0.11304 -23.896172,58.3306 0.02033,44.89743"
             style="fill:none;fill-opacity:1;fill-rule:evenodd;stroke:#000000;stroke-width:2.11666656;stroke-linecap:round;stroke-linejoin:round;stroke-miterlimit:4;stroke-dasharray:none;stroke-opacity:1" />
          <path
             inkscape:connector-curvature="0"
             id="path41"
             d="m 34.866953,231.08409 c 7.095399,1.67915 14.70576,2.79768 25.740516,0.18829"
             style="fill:none;stroke:#000000;stroke-width:2.11666656;stroke-linecap:round;stroke-linejoin:round;stroke-miterlimit:4;stroke-dasharray:none;stroke-opacity:1" />
          <path
             inkscape:connector-curvature="0"
             id="path851"
             d="m 65.026307,254.18965 c -2.90038,-0.67986 -6.653408,-3.00036 -10.217729,-6.31763 -1.002349,-0.93287 -1.973706,-1.77504 -2.158573,-1.8715 -0.881759,-0.46001 -4.539544,-0.89987 -7.489709,-0.90065 -5.015458,-0.001 -7.858202,0.97247 -10.251036,3.51156 -1.804329,1.91461 -3.950316,2.7927 -6.825141,2.7927 -2.378679,0 -3.699051,-0.56185 -5.563867,-2.36755 -2.509589,-2.43005 -4.141601,-6.19863 -4.92909,-11.38207 -0.428219,-2.81863 -0.320488,-9.02496 0.203736,-11.73694 3.011069,-15.57728 12.890515,-21.90435 25.018354,-16.02246 2.068567,1.00324 4.988755,2.90096 7.147637,4.64495 0.930436,0.75163 1.853537,1.36659 2.051336,1.36659 0.197801,0 1.194605,-0.6486 2.215122,-1.44136 4.929039,-3.82897 9.068218,-5.74602 12.909596,-5.97907 5.439558,-0.32999 9.754229,3.26667 12.11984,10.10299 3.011972,8.70423 2.330574,20.61597 -1.621837,28.35179 -3.047514,5.96473 -7.403235,8.46881 -12.608639,7.24865 z M 54.16536,233.54611 c 2.58836,-0.3117 6.855148,-1.18449 7.218705,-1.47663 0.403004,-0.32381 0.282801,-1.4227 -0.186759,-1.7073 -0.267257,-0.16199 -0.868459,-0.11997 -2.243859,0.15681 -3.541203,0.7126 -5.756909,0.97444 -9.292534,1.09815 -4.047253,0.1416 -7.304165,-0.12027 -11.09235,-0.89188 -3.662301,-0.74597 -4.079888,-0.79262 -4.448143,-0.49671 -0.391897,0.3149 -0.426518,1.32163 -0.05566,1.61838 0.597238,0.47788 6.216857,1.5661 9.83831,1.90515 2.327563,0.21793 7.625228,0.11159 10.262284,-0.20597 z"
             style="fill:none;fill-opacity:1;fill-rule:evenodd;stroke-width:2.03631949;stroke-linecap:round;stroke-linejoin:round;stroke-miterlimit:4;stroke-dasharray:none" />
          <path
             inkscape:connector-curvature="0"
             id="path853"
             d="m 65.026307,254.18965 c -2.90038,-0.67986 -6.653408,-3.00036 -10.217729,-6.31763 -1.002349,-0.93287 -1.973706,-1.77504 -2.158573,-1.8715 -0.881759,-0.46001 -4.539544,-0.89987 -7.489709,-0.90065 -5.015458,-0.001 -7.858202,0.97247 -10.251036,3.51156 -1.804329,1.91461 -3.950316,2.7927 -6.825141,2.7927 -2.378679,0 -3.699051,-0.56185 -5.563867,-2.36755 -2.509589,-2.43005 -4.141601,-6.19863 -4.92909,-11.38207 -0.428219,-2.81863 -0.320488,-9.02496 0.203736,-11.73694 3.011069,-15.57728 12.890515,-21.90435 25.018354,-16.02246 2.068567,1.00324 4.988755,2.90096 7.147637,4.64495 0.930436,0.75163 1.853537,1.36659 2.051336,1.36659 0.197801,0 1.194605,-0.6486 2.215122,-1.44136 4.929039,-3.82897 9.068218,-5.74602 12.909596,-5.97907 5.439558,-0.32999 9.754229,3.26667 12.11984,10.10299 3.011972,8.70423 2.330574,20.61597 -1.621837,28.35179 -3.047514,5.96473 -7.403235,8.46881 -12.608639,7.24865 z M 54.16536,233.54611 c 2.58836,-0.3117 6.855148,-1.18449 7.218705,-1.47663 0.403004,-0.32381 0.282801,-1.4227 -0.186759,-1.7073 -0.267257,-0.16199 -0.868459,-0.11997 -2.243859,0.15681 -3.541203,0.7126 -5.756909,0.97444 -9.292534,1.09815 -4.047253,0.1416 -7.304165,-0.12027 -11.09235,-0.89188 -3.662301,-0.74597 -4.079888,-0.79262 -4.448143,-0.49671 -0.391897,0.3149 -0.426518,1.32163 -0.05566,1.61838 0.597238,0.47788 6.216857,1.5661 9.83831,1.90515 2.327563,0.21793 7.625228,0.11159 10.262284,-0.20597 z"
             style="fill:none;fill-opacity:1;fill-rule:evenodd;stroke-width:2.03631949;stroke-linecap:round;stroke-linejoin:round;stroke-miterlimit:4;stroke-dasharray:none" />
          <path
             inkscape:connector-curvature="0"
             id="path855"
             d="m 65.026307,254.18965 c -2.90038,-0.67986 -6.653408,-3.00036 -10.217729,-6.31763 -1.002349,-0.93287 -1.973706,-1.77504 -2.158573,-1.8715 -0.881759,-0.46001 -4.539544,-0.89987 -7.489709,-0.90065 -5.015458,-0.001 -7.858202,0.97247 -10.251036,3.51156 -1.804329,1.91461 -3.950316,2.7927 -6.825141,2.7927 -2.378679,0 -3.699051,-0.56185 -5.563867,-2.36755 -2.509589,-2.43005 -4.141601,-6.19863 -4.92909,-11.38207 -0.428219,-2.81863 -0.320488,-9.02496 0.203736,-11.73694 3.011069,-15.57728 12.890515,-21.90435 25.018354,-16.02246 2.068567,1.00324 4.988755,2.90096 7.147637,4.64495 0.930436,0.75163 1.853537,1.36659 2.051336,1.36659 0.197801,0 1.194605,-0.6486 2.215122,-1.44136 4.929039,-3.82897 9.068218,-5.74602 12.909596,-5.97907 5.439558,-0.32999 9.754229,3.26667 12.11984,10.10299 3.011972,8.70423 2.330574,20.61597 -1.621837,28.35179 -3.047514,5.96473 -7.403235,8.46881 -12.608639,7.24865 z M 54.16536,233.54611 c 2.58836,-0.3117 6.855148,-1.18449 7.218705,-1.47663 0.403004,-0.32381 0.282801,-1.4227 -0.186759,-1.7073 -0.267257,-0.16199 -0.868459,-0.11997 -2.243859,0.15681 -3.541203,0.7126 -5.756909,0.97444 -9.292534,1.09815 -4.047253,0.1416 -7.304165,-0.12027 -11.09235,-0.89188 -3.662301,-0.74597 -4.079888,-0.79262 -4.448143,-0.49671 -0.391897,0.3149 -0.426518,1.32163 -0.05566,1.61838 0.597238,0.47788 6.216857,1.5661 9.83831,1.90515 2.327563,0.21793 7.625228,0.11159 10.262284,-0.20597 z"
             style="fill:none;fill-opacity:1;fill-rule:evenodd;stroke-width:2.03631949;stroke-linecap:round;stroke-linejoin:round;stroke-miterlimit:4;stroke-dasharray:none" />
          <path
             inkscape:connector-curvature="0"
             id="path857"
             d="m 65.026307,254.18965 c -2.90038,-0.67986 -6.653408,-3.00036 -10.217729,-6.31763 -1.002349,-0.93287 -1.973706,-1.77504 -2.158573,-1.8715 -0.881759,-0.46001 -4.539544,-0.89987 -7.489709,-0.90065 -5.015458,-0.001 -7.858202,0.97247 -10.251036,3.51156 -1.804329,1.91461 -3.950316,2.7927 -6.825141,2.7927 -2.378679,0 -3.699051,-0.56185 -5.563867,-2.36755 -2.509589,-2.43005 -4.141601,-6.19863 -4.92909,-11.38207 -0.428219,-2.81863 -0.320488,-9.02496 0.203736,-11.73694 3.011069,-15.57728 12.890515,-21.90435 25.018354,-16.02246 2.068567,1.00324 4.988755,2.90096 7.147637,4.64495 0.930436,0.75163 1.853537,1.36659 2.051336,1.36659 0.197801,0 1.194605,-0.6486 2.215122,-1.44136 4.929039,-3.82897 9.068218,-5.74602 12.909596,-5.97907 5.439558,-0.32999 9.754229,3.26667 12.11984,10.10299 3.011972,8.70423 2.330574,20.61597 -1.621837,28.35179 -3.047514,5.96473 -7.403235,8.46881 -12.608639,7.24865 z M 54.16536,233.54611 c 2.58836,-0.3117 6.855148,-1.18449 7.218705,-1.47663 0.403004,-0.32381 0.282801,-1.4227 -0.186759,-1.7073 -0.267257,-0.16199 -0.868459,-0.11997 -2.243859,0.15681 -3.541203,0.7126 -5.756909,0.97444 -9.292534,1.09815 -4.047253,0.1416 -7.304165,-0.12027 -11.09235,-0.89188 -3.662301,-0.74597 -4.079888,-0.79262 -4.448143,-0.49671 -0.391897,0.3149 -0.426518,1.32163 -0.05566,1.61838 0.597238,0.47788 6.216857,1.5661 9.83831,1.90515 2.327563,0.21793 7.625228,0.11159 10.262284,-0.20597 z"
             style="fill:none;fill-opacity:1;fill-rule:evenodd;stroke-width:2.03631949;stroke-linecap:round;stroke-linejoin:round;stroke-miterlimit:4;stroke-dasharray:none" />
          <path
             inkscape:connector-curvature="0"
             id="path859"
             d="m 41.729791,265.98715 c -5.146798,-1.35178 -9.219548,-7.1105 -8.729481,-12.34314 0.102296,-1.09227 0.07493,-1.21585 -0.24089,-1.08752 -2.116679,0.86009 -5.101904,1.13331 -7.002899,0.64091 -2.708929,-0.70165 -5.379966,-2.80713 -7.025882,-5.53826 -4.076697,-6.76461 -4.726826,-18.30157 -1.551271,-27.52834 2.163667,-6.28667 5.633394,-10.62086 10.292404,-12.85668 2.591587,-1.24368 4.469246,-1.60782 7.611426,-1.4761 4.916737,0.20612 10.134603,2.43182 15.384734,6.56245 0.737615,0.58032 1.426974,1.05514 1.531911,1.05514 0.104936,0 1.286367,-0.79761 2.625398,-1.77247 5.562437,-4.04966 11.169004,-5.84673 15.513389,-4.97252 7.397366,1.48858 12.201129,9.34496 12.949184,21.17792 0.805631,12.7437 -3.67381,24.24648 -10.741604,27.58342 -5.392005,2.54574 -11.699178,0.566 -18.66461,-5.85858 l -1.994282,-1.83944 -2.285072,-0.34458 c -8.666878,-1.3069 -14.115914,1.10391 -14.482802,6.40763 -0.316633,4.57726 2.837615,9.17402 7.122713,10.3801 2.527009,0.71127 5.199814,0.0954 7.7839,-1.79356 1.227193,-0.89706 1.653055,-0.95118 2.119792,-0.26937 0.2618,0.38243 0.245514,0.49829 -0.136069,0.96797 -0.583444,0.71813 -2.825249,2.06268 -4.36445,2.61763 -1.757706,0.63372 -3.972877,0.74511 -5.715539,0.28739 z M 67.35135,254.51526 c -2.24577,-0.1972 -3.279039,-0.48336 -5.393666,-1.49378 -2.121051,-1.01348 -4.704612,-2.8744 -7.149106,-5.14946 -1.002349,-0.93287 -1.972849,-1.7746 -2.156669,-1.87051 -0.691676,-0.36087 -4.264531,-0.84207 -6.848396,-0.92236 l -2.680079,-0.0834 2.572876,0.17718 c 1.415083,0.0975 3.441222,0.32463 4.502534,0.50484 1.06131,0.18022 2.003157,0.32796 2.092989,0.32833 0.08984,5.3e-4 1.24466,0.98533 2.566278,2.18881 4.884991,4.44834 8.975681,6.51794 12.814847,6.48339 l 1.39364,-0.0125 -1.715248,-0.15061 z m 4.395329,-0.76316 c 1.610405,-0.75337 3.978741,-3.0888 5.222981,-5.1504 1.05012,-1.73996 2.572511,-5.298 2.797866,-6.539 0.07257,-0.3996 -0.161417,0.11417 -0.519967,1.14172 -2.003773,5.7426 -5.178549,9.63509 -8.884213,10.89268 -0.845954,0.28711 -1.035876,0.39952 -0.546324,0.32338 0.412732,-0.0641 1.281078,-0.36495 1.929657,-0.66838 z M 30.809758,251.277 c 1.873939,-0.53862 3.471532,-1.42895 4.035865,-2.24919 0.887889,-1.29048 2.999579,-2.59868 5.276124,-3.26854 1.020233,-0.30019 1.108968,-0.35531 0.42881,-0.26634 -0.471693,0.0617 -1.647344,0.48436 -2.612561,0.9392 -1.356521,0.63926 -2.037984,1.12722 -3.00169,2.14937 -1.817457,1.92767 -3.326934,2.58165 -6.499704,2.81594 l -2.036861,0.15041 1.622734,0.0318 c 0.964067,0.0189 2.095423,-0.10393 2.787283,-0.30279 z m -5.589251,-0.33077 c -0.862061,-0.31892 -1.588341,-0.83246 -2.700255,-1.90936 -2.422276,-2.34598 -4.119355,-6.16862 -4.893321,-11.02214 -0.163859,-1.02755 -0.307271,-1.575 -0.318693,-1.21655 -0.03007,0.94424 0.568168,3.82924 1.196122,5.76814 0.819302,2.52971 2.280323,5.11448 3.680461,6.51131 1.1467,1.14399 3.15062,2.33943 3.881806,2.31568 0.183212,-0.006 -0.197541,-0.20713 -0.84612,-0.44708 z m 17.530216,-5.70477 c -0.204993,-0.0519 -0.590923,-0.0538 -0.857624,-0.004 -0.266703,0.0496 -0.09899,0.0922 0.37271,0.0945 0.471693,0.002 0.689906,-0.0383 0.484914,-0.0903 z m 37.96844,-7.43431 c 0.0013,-0.34252 -0.182146,0.21797 -0.407715,1.24552 -0.225567,1.02757 -0.400662,1.9617 -0.389101,2.07587 0.04229,0.41761 0.79448,-2.71777 0.796816,-3.32139 z m 0.445503,-3.61547 c 0.02496,-1.76562 -0.128444,-1.15302 -0.255574,1.02062 -0.07907,1.35201 -0.05953,1.67837 0.06217,1.03794 0.09762,-0.51378 0.184661,-1.44014 0.193402,-2.05856 z M 17.33748,231.37193 c 0.04197,-2.28346 0.0082,-3.68469 -0.07526,-3.11381 -0.145458,0.99601 -0.212387,8.21683 -0.07023,7.57695 0.03805,-0.17126 0.103519,-2.17968 0.145493,-4.46314 z m 36.82788,2.17418 c 2.58836,-0.3117 6.855148,-1.18449 7.218705,-1.47663 0.403004,-0.32381 0.282801,-1.4227 -0.186759,-1.7073 -0.267257,-0.16199 -0.868459,-0.11997 -2.243859,0.15681 -3.541203,0.7126 -5.756909,0.97444 -9.292534,1.09815 -4.047253,0.1416 -7.304165,-0.12027 -11.09235,-0.89188 -3.662301,-0.74597 -4.079888,-0.79262 -4.448143,-0.49671 -0.391897,0.3149 -0.426518,1.32163 -0.05566,1.61838 0.597238,0.47788 6.216857,1.5661 9.83831,1.90515 2.327563,0.21793 7.625228,0.11159 10.262284,-0.20597 z M 81.339,229.45175 c -0.04255,-0.65649 -0.07736,-0.11936 -0.07736,1.19362 0,1.31299 0.03481,1.85013 0.07736,1.19363 0.04255,-0.65649 0.04255,-1.73076 0,-2.38725 z m -0.264529,-3.74439 c -0.08134,-0.84045 -0.187316,-1.48991 -0.235495,-1.44326 -0.04819,0.0466 -0.01797,0.96438 0.06712,2.03942 0.0851,1.07502 0.19107,1.7245 0.235497,1.44325 0.04444,-0.28123 0.01423,-1.19897 -0.06712,-2.03941 z m -63.181504,-0.56305 c -0.02001,-0.63837 -0.340234,0.72597 -0.341065,1.4531 -5.99e-4,0.52361 0.02754,0.49057 0.176683,-0.20758 0.09756,-0.45669 0.171539,-1.01717 0.164382,-1.24552 z M 19.9244,218.7317 c 1.891151,-4.47128 4.806392,-7.88403 8.207407,-9.60807 0.625341,-0.317 1.101266,-0.61094 1.05761,-0.65322 -0.235772,-0.22826 -2.945897,1.48609 -4.335413,2.74248 -2.354809,2.12919 -4.155338,4.86059 -5.488839,8.32655 -0.644635,1.67551 -1.441506,4.41205 -1.419331,4.87414 0.0084,0.17355 0.281269,-0.6186 0.606537,-1.76032 0.325268,-1.14173 0.942682,-2.90643 1.372029,-3.92156 z m 60.612937,3.71396 c -0.146627,-0.75237 -0.30762,-1.32825 -0.357758,-1.27971 -0.05015,0.0485 0.02643,0.70617 0.170154,1.46136 0.143721,0.75521 0.304713,1.33108 0.357758,1.27973 0.05305,-0.0513 -0.02352,-0.70899 -0.170154,-1.46138 z m -1.067556,-3.86052 c -1.748774,-5.05374 -4.565496,-8.42504 -8.156807,-9.76276 -0.797818,-0.29717 -1.793043,-0.45852 -3.103999,-0.5032 l -1.929659,-0.0657 1.929659,0.17686 c 2.972208,0.27241 4.399302,0.88491 6.518863,2.79786 2.061476,1.86053 3.912264,5.0488 4.87303,8.39457 0.209185,0.72847 0.414667,1.22478 0.456624,1.10291 0.04196,-0.12187 -0.222511,-1.08509 -0.587711,-2.14047 z m -25.242434,-4.11985 c 3.575171,-2.77726 6.114255,-4.22798 9.081908,-5.18905 1.078704,-0.34933 2.188258,-0.64252 2.465672,-0.65153 0.277414,-0.009 0.381025,-0.0645 0.230248,-0.12308 -0.441553,-0.17182 -2.37149,0.34581 -4.352624,1.16745 -2.062983,0.85558 -5.271689,2.82595 -7.733569,4.74896 -0.902005,0.70457 -1.754702,1.28103 -1.894877,1.28103 -0.140175,0 -1.235341,-0.76397 -2.433702,-1.69771 -5.551272,-4.32547 -10.506852,-6.42785 -15.15121,-6.42785 -2.02458,0 -3.365866,0.17685 -3.551941,0.46836 -0.06666,0.10441 1.557447,0.18405 3.753625,0.18405 3.395494,0 4.035861,0.0546 5.212008,0.44442 3.002022,0.99495 6.813236,3.20813 10.108004,5.86972 0.930436,0.75163 1.853537,1.36659 2.051336,1.36659 0.197801,0 1.194605,-0.6486 2.215122,-1.44136 z"
             style="fill:none;fill-opacity:1;fill-rule:evenodd;stroke-width:2.03631949;stroke-linecap:round;stroke-linejoin:round;stroke-miterlimit:4;stroke-dasharray:none" />
          <path
             inkscape:connector-curvature="0"
             id="path861"
             d="m 65.026307,254.18965 c -2.90038,-0.67986 -6.653408,-3.00036 -10.217729,-6.31763 -1.002349,-0.93287 -1.973706,-1.77504 -2.158573,-1.8715 -0.881759,-0.46001 -4.539544,-0.89987 -7.489709,-0.90065 -5.015458,-0.001 -7.858202,0.97247 -10.251036,3.51156 -1.804329,1.91461 -3.950316,2.7927 -6.825141,2.7927 -2.378679,0 -3.699051,-0.56185 -5.563867,-2.36755 -2.509589,-2.43005 -4.141601,-6.19863 -4.92909,-11.38207 -0.428219,-2.81863 -0.320488,-9.02496 0.203736,-11.73694 3.011069,-15.57728 12.890515,-21.90435 25.018354,-16.02246 2.068567,1.00324 4.988755,2.90096 7.147637,4.64495 0.930436,0.75163 1.853537,1.36659 2.051336,1.36659 0.197801,0 1.194605,-0.6486 2.215122,-1.44136 4.929039,-3.82897 9.068218,-5.74602 12.909596,-5.97907 5.439558,-0.32999 9.754229,3.26667 12.11984,10.10299 3.011972,8.70423 2.330574,20.61597 -1.621837,28.35179 -3.047514,5.96473 -7.403235,8.46881 -12.608639,7.24865 z M 54.16536,233.54611 c 2.58836,-0.3117 6.855148,-1.18449 7.218705,-1.47663 0.403004,-0.32381 0.282801,-1.4227 -0.186759,-1.7073 -0.267257,-0.16199 -0.868459,-0.11997 -2.243859,0.15681 -3.541203,0.7126 -5.756909,0.97444 -9.292534,1.09815 -4.047253,0.1416 -7.304165,-0.12027 -11.09235,-0.89188 -3.662301,-0.74597 -4.079888,-0.79262 -4.448143,-0.49671 -0.391897,0.3149 -0.426518,1.32163 -0.05566,1.61838 0.597238,0.47788 6.216857,1.5661 9.83831,1.90515 2.327563,0.21793 7.625228,0.11159 10.262284,-0.20597 z"
             style="fill:none;fill-opacity:1;fill-rule:evenodd;stroke-width:2.03631949;stroke-linecap:round;stroke-linejoin:round;stroke-miterlimit:4;stroke-dasharray:none" />
          <path
             inkscape:connector-curvature="0"
             id="path863"
             d="m 65.026307,254.18965 c -2.90038,-0.67986 -6.653408,-3.00036 -10.217729,-6.31763 -1.002349,-0.93287 -1.973706,-1.77504 -2.158573,-1.8715 -0.881759,-0.46001 -4.539544,-0.89987 -7.489709,-0.90065 -5.015458,-0.001 -7.858202,0.97247 -10.251036,3.51156 -1.804329,1.91461 -3.950316,2.7927 -6.825141,2.7927 -2.378679,0 -3.699051,-0.56185 -5.563867,-2.36755 -2.509589,-2.43005 -4.141601,-6.19863 -4.92909,-11.38207 -0.428219,-2.81863 -0.320488,-9.02496 0.203736,-11.73694 3.011069,-15.57728 12.890515,-21.90435 25.018354,-16.02246 2.068567,1.00324 4.988755,2.90096 7.147637,4.64495 0.930436,0.75163 1.853537,1.36659 2.051336,1.36659 0.197801,0 1.194605,-0.6486 2.215122,-1.44136 4.929039,-3.82897 9.068218,-5.74602 12.909596,-5.97907 5.439558,-0.32999 9.754229,3.26667 12.11984,10.10299 3.011972,8.70423 2.330574,20.61597 -1.621837,28.35179 -3.047514,5.96473 -7.403235,8.46881 -12.608639,7.24865 z M 54.16536,233.54611 c 2.58836,-0.3117 6.855148,-1.18449 7.218705,-1.47663 0.403004,-0.32381 0.282801,-1.4227 -0.186759,-1.7073 -0.267257,-0.16199 -0.868459,-0.11997 -2.243859,0.15681 -3.541203,0.7126 -5.756909,0.97444 -9.292534,1.09815 -4.047253,0.1416 -7.304165,-0.12027 -11.09235,-0.89188 -3.662301,-0.74597 -4.079888,-0.79262 -4.448143,-0.49671 -0.391897,0.3149 -0.426518,1.32163 -0.05566,1.61838 0.597238,0.47788 6.216857,1.5661 9.83831,1.90515 2.327563,0.21793 7.625228,0.11159 10.262284,-0.20597 z"
             style="fill:none;fill-opacity:1;fill-rule:evenodd;stroke-width:2.03631949;stroke-linecap:round;stroke-linejoin:round;stroke-miterlimit:4;stroke-dasharray:none" />
          <path
             inkscape:connector-curvature="0"
             id="path848"
             d=""
             style="fill:#00ffff;fill-opacity:1;fill-rule:evenodd;stroke-width:2.03631949;stroke-linecap:round;stroke-linejoin:round;stroke-miterlimit:4;stroke-dasharray:none" />
          <path
             sodipodi:nodetypes="cc"
             inkscape:connector-curvature="0"
             id="path847"
             d="m 3.7200324,174.54765 c -0.7139697,21.93501 24.8146336,6.1891 16.5223236,40.50411"
             style="fill:none;stroke:#000000;stroke-width:2.11666656;stroke-linecap:round;stroke-linejoin:miter;stroke-miterlimit:4;stroke-dasharray:none;stroke-opacity:1" />
          <path
             inkscape:connector-curvature="0"
             id="path852"
             d=""
             style="fill:#ff0000;fill-opacity:1;fill-rule:evenodd;stroke:none;stroke-width:2.03631949;stroke-linecap:round;stroke-linejoin:round;stroke-miterlimit:4;stroke-dasharray:none;stroke-opacity:1" />
        </g>
      </g>
    </g>
  </g>
</svg>
